<svg xmlns="http://www.w3.org/2000/svg" id="Layer_1" data-name="Layer 1" version="1.1" viewBox="42 37.4 64 72.6">
  <defs>
    <style>
      .cls-1 {
        fill: #105640;
      }

      .cls-1, .cls-2, .cls-3 {
        stroke-width: 0px;
      }

      .cls-2 {
        fill: #ffd520;
      }

      .cls-3 {
        fill: #fff;
      }
    </style>
  </defs>
  <path class="cls-1" d="M74.1,110c-13.2,0-22-3-27.1-4.8,0,0-5-10.4-5-34.1s5.6-28.9,5.6-28.9c7.1-4,16-4.8,26.4-4.8h0c10.5,0,19.3.9,26.4,4.8,0,0,5.6,15.6,5.6,28.9,0,23.7-5,34.1-5,34.1-5,1.8-13.9,4.8-27.1,4.8h0Z"/>
  <polygon class="cls-3" points="59.5 43.8 63.5 43.8 63.5 47.7 66.1 47.7 66.1 43.8 70.1 43.8 70.1 55.3 66.1 55.3 66.1 51.3 63.5 51.3 63.5 55.3 59.5 55.3 59.5 43.8"/>
  <rect class="cls-3" x="72.3" y="43.8" width="4.2" height="11.5"/>
  <path class="cls-3" d="M82.1,55.3h-4.4l4-11.5h4.6l4.1,11.5h-4.4l-.4-1.4h-3.2l-.3,1.4ZM84.9,51.2l-.5-2c-.1-.5-.2-1-.3-1.5h-.2l-.8,3.5h1.7Z"/>
  <path class="cls-3" d="M58.2,70.9v-11s4.1-.3,4.1,3.1v4.5l-4.1,3.4Z"/>
  <path class="cls-3" d="M63.6,66.3v-9.1s4.6.2,4.6,3.3v2l-4.6,3.8Z"/>
  <path class="cls-3" d="M69.6,62.4v-3.6s4.6.3,4.6,2.8l-4.6.8Z"/>
  <path class="cls-3" d="M81.7,109.7v-8.8l9.4-14.1v-14.6s-6.2-.5-6.2,5.2v4.7l-6.8,4.4v-1.3l2.8-1.9v-1l-6.4-5.6v-3.6l-1.8-2.5-3.2.7v6.4l-1.3.4v-6.6l-4.7.8v7l-1.3.4v-7.2l-4.1.7v7.7l-1.3.4v-9.3s.4-5.2-5.3-5.2v19.9l13.5,13.5v9.2c2.8.3,5.8.5,9,.5,2.7,0,5.2-.1,7.6-.3"/>
  <polygon class="cls-2" points="68.1 64.5 59.7 71.4 71.7 69.2 68.1 64.5"/>
  <path class="cls-2" d="M69.5,64l9.5,12.7,5-.8s.2-4.7,7.9-4.7v3.3l8.1-1.4-9.7-12.6-1.3.3v4.2l-1.1.3v-4.9l-3.2-2.2-3.7.6,3,2.4v4.8l-3.6-3.8-10.9,1.9Z"/>
</svg>